# xmcd
#
# Track frame offsets:
#	150
#	12681
#	41259
#	56702
#	99884
#	118035
#	137205
#	169455
#	198510
#	211111
#
# Disc length: 3125 seconds
#
# Revision: 1
# Processed by: cddbd v1.5.1PL0 Copyright (c) Steve Scherf et al.
# Submitted via: audiograbber 1.83.01
#
DISCID=8d0c330a
DTITLE=Amor Belhom Duo - Wavelab Performance
DYEAR=1900
DGENRE=Minimal French Post-Rock Poet
TTITLE0=Introduction
TTITLE1=Elevator Baby
TTITLE2=What I Left
TTITLE3=Parasite
TTITLE4=Ride Back
TTITLE5=She Ain't Coming Back
TTITLE6=Jambe en l'Air
TTITLE7=No Gossip
TTITLE8=Prélude
TTITLE9=La Malinche
EXTD=
EXTT0=
EXTT1=
EXTT2=
EXTT3=
EXTT4=
EXTT5=
EXTT6=
EXTT7=
EXTT8=
EXTT9=
PLAYORDER=
